#Comment line ignore any data following # character 
#Hierarchical Translation and Rotation (.htr) file 
[Header]	
#Header keywords are followed by a single value 
FileType HTR		#Single word string
DataType HTRS		#Translation followed by rotation and scale data
FileVersion 1		#integer
NumSegments 84		#integer
NumFrames 2		#integer
DataFrameRate 30		#integer, data frame rate in this file
EulerRotationOrder ZYX
CalibrationUnits mm
RotationUnits Degrees
GlobalAxisofGravity Y
BoneLengthAxis Y
ScaleFactor 1.00
[SegmentNames&Hierarchy]
#CHILD	PARENT
MASTER GLOBAL
root MASTER
chest root
L_mid_tent01 root
R_mid_tent01 root
spine01 root
Bip01_Neck chest
L_humerus chest
R_humerus chest
weapon_bone chest
Bip01_Head Bip01_Neck
eye_left_bone Bip01_Head
eye_right_bone Bip01_Head
L_forearm L_humerus
L_front_hand L_forearm
L_weapon_bone L_forearm
L_front_hand01_01 L_front_hand
L_front_hand02_01 L_front_hand
L_front_hand03_01 L_front_hand
L_front_hand01_02 L_front_hand01_01
L_front_hand02_02 L_front_hand02_01
L_front_hand03_02 L_front_hand03_01
R_forearm R_humerus
R_front_hand R_forearm
R_weapon_bone R_forearm
R_front_hand01_01 R_front_hand
R_front_hand02_01 R_front_hand
R_front_hand03_01 R_front_hand
R_front_hand01_02 R_front_hand01_01
R_front_hand02_02 R_front_hand02_01
R_front_hand03_02 R_front_hand03_01
null_rope01_connect L_mid_tent01
Rope1_Seg01 null_rope01_connect
Rope1_Seg02 Rope1_Seg01
Rope1_Seg03 Rope1_Seg02
Rope1_Seg04 Rope1_Seg03
Rope1_Seg05 Rope1_Seg04
Rope1_Seg06 Rope1_Seg05
Rope1_Seg07 Rope1_Seg06
Rope1_Seg09 Rope1_Seg07
L_mid_hand01 Rope1_Seg09
L_mid_hand02 Rope1_Seg09
L_mid_hand03 Rope1_Seg09
null_rope02_connect R_mid_tent01
Rope2_Seg01 null_rope02_connect
Rope2_Seg02 Rope2_Seg01
Rope2_Seg03 Rope2_Seg02
Rope2_Seg04 Rope2_Seg03
Rope2_Seg05 Rope2_Seg04
Rope2_Seg06 Rope2_Seg05
Rope2_Seg07 Rope2_Seg06
Rope2_Seg09 Rope2_Seg07
R_mid_hand01 Rope2_Seg09
R_mid_hand02 Rope2_Seg09
R_mid_hand03 Rope2_Seg09
spine02 spine01
spine03 spine02
pelvis spine03
null_rope03_connect pelvis
null_rope04_connect pelvis
Rope3_Seg01 null_rope03_connect
Rope3_Seg02 Rope3_Seg01
Rope3_Seg03 Rope3_Seg02
Rope3_Seg04 Rope3_Seg03
Rope3_Seg05 Rope3_Seg04
Rope3_Seg06 Rope3_Seg05
Rope3_Seg07 Rope3_Seg06
Rope3_Seg08 Rope3_Seg07
Rope3_Seg09 Rope3_Seg08
R_rear_hand01 Rope3_Seg09
R_rear_hand02 Rope3_Seg09
R_rear_hand03 Rope3_Seg09
Rope4_Seg01 null_rope04_connect
Rope4_Seg02 Rope4_Seg01
Rope4_Seg03 Rope4_Seg02
Rope4_Seg04 Rope4_Seg03
Rope4_Seg05 Rope4_Seg04
Rope4_Seg06 Rope4_Seg05
Rope4_Seg07 Rope4_Seg06
Rope4_Seg08 Rope4_Seg07
Rope4_Seg09 Rope4_Seg08
L_rear_hand01 Rope4_Seg09
L_rear_hand02 Rope4_Seg09
L_rear_hand03 Rope4_Seg09
[BasePosition]
#SegmentName Tx, Ty, Tz, Rx, Ry, Rz, BoneLength
MASTER 0.000000 0.000000 0.000000 -90.000000 0.000000 0.000000 10.000000 
root 0.000000 0.000000 0.000000 0.000000 0.000000 0.000000 10.000000 
chest 0.000000 0.000000 0.000000 0.000000 0.000000 0.000000 10.000000 
L_mid_tent01 0.000000 0.000000 0.000000 0.000000 0.000000 0.000000 10.000000 
R_mid_tent01 0.000000 0.000000 0.000000 0.000000 0.000000 0.000000 10.000000 
spine01 0.000000 0.000000 0.000000 0.000000 0.000000 0.000000 10.000000 
Bip01_Neck 0.000000 0.000000 0.000000 0.000000 0.000000 0.000000 10.000000 
L_humerus 0.000000 0.000000 0.000000 0.000000 0.000000 0.000000 10.000000 
R_humerus 0.000000 0.000000 0.000000 0.000000 0.000000 0.000000 10.000000 
weapon_bone 0.000000 0.000000 0.000000 0.000000 0.000000 0.000000 10.000000 
Bip01_Head 0.000000 0.000000 0.000000 0.000000 0.000000 0.000000 10.000000 
eye_left_bone 0.000000 0.000000 0.000000 0.000000 0.000000 0.000000 10.000000 
eye_right_bone 0.000000 0.000000 0.000000 0.000000 0.000000 0.000000 10.000000 
L_forearm 0.000000 0.000000 0.000000 0.000000 0.000000 0.000000 10.000000 
L_front_hand 0.000000 0.000000 0.000000 0.000000 0.000000 0.000000 10.000000 
L_weapon_bone 0.000000 0.000000 0.000000 0.000000 0.000000 0.000000 10.000000 
L_front_hand01_01 0.000000 0.000000 0.000000 0.000000 0.000000 0.000000 10.000000 
L_front_hand02_01 0.000000 0.000000 0.000000 0.000000 0.000000 0.000000 10.000000 
L_front_hand03_01 0.000000 0.000000 0.000000 0.000000 0.000000 0.000000 10.000000 
L_front_hand01_02 0.000000 0.000000 0.000000 0.000000 0.000000 0.000000 10.000000 
L_front_hand02_02 0.000000 0.000000 0.000000 0.000000 0.000000 0.000000 10.000000 
L_front_hand03_02 0.000000 0.000000 0.000000 0.000000 0.000000 0.000000 10.000000 
R_forearm 0.000000 0.000000 0.000000 0.000000 0.000000 0.000000 10.000000 
R_front_hand 0.000000 0.000000 0.000000 0.000000 0.000000 0.000000 10.000000 
R_weapon_bone 0.000000 0.000000 0.000000 0.000000 0.000000 0.000000 10.000000 
R_front_hand01_01 0.000000 0.000000 0.000000 0.000000 0.000000 0.000000 10.000000 
R_front_hand02_01 0.000000 0.000000 0.000000 0.000000 0.000000 0.000000 10.000000 
R_front_hand03_01 0.000000 0.000000 0.000000 0.000000 0.000000 0.000000 10.000000 
R_front_hand01_02 0.000000 0.000000 0.000000 0.000000 0.000000 0.000000 10.000000 
R_front_hand02_02 0.000000 0.000000 0.000000 0.000000 0.000000 0.000000 10.000000 
R_front_hand03_02 0.000000 0.000000 0.000000 0.000000 0.000000 0.000000 10.000000 
null_rope01_connect 0.000000 0.000000 0.000000 0.000000 0.000000 0.000000 10.000000 
Rope1_Seg01 0.000000 0.000000 0.000000 0.000000 0.000000 0.000000 10.000000 
Rope1_Seg02 0.000000 0.000000 0.000000 0.000000 0.000000 0.000000 10.000000 
Rope1_Seg03 0.000000 0.000000 0.000000 0.000000 0.000000 0.000000 10.000000 
Rope1_Seg04 0.000000 0.000000 0.000000 0.000000 0.000000 0.000000 10.000000 
Rope1_Seg05 0.000000 0.000000 0.000000 0.000000 0.000000 0.000000 10.000000 
Rope1_Seg06 0.000000 0.000000 0.000000 0.000000 0.000000 0.000000 10.000000 
Rope1_Seg07 0.000000 0.000000 0.000000 0.000000 0.000000 0.000000 10.000000 
Rope1_Seg09 0.000000 0.000000 0.000000 0.000000 0.000000 0.000000 10.000000 
L_mid_hand01 0.000000 0.000000 0.000000 0.000000 0.000000 0.000000 10.000000 
L_mid_hand02 0.000000 0.000000 0.000000 0.000000 0.000000 0.000000 10.000000 
L_mid_hand03 0.000000 0.000000 0.000000 0.000000 0.000000 0.000000 10.000000 
null_rope02_connect 0.000000 0.000000 0.000000 0.000000 0.000000 0.000000 10.000000 
Rope2_Seg01 0.000000 0.000000 0.000000 0.000000 0.000000 0.000000 10.000000 
Rope2_Seg02 0.000000 0.000000 0.000000 0.000000 0.000000 0.000000 10.000000 
Rope2_Seg03 0.000000 0.000000 0.000000 0.000000 0.000000 0.000000 10.000000 
Rope2_Seg04 0.000000 0.000000 0.000000 0.000000 0.000000 0.000000 10.000000 
Rope2_Seg05 0.000000 0.000000 0.000000 0.000000 0.000000 0.000000 10.000000 
Rope2_Seg06 0.000000 0.000000 0.000000 0.000000 0.000000 0.000000 10.000000 
Rope2_Seg07 0.000000 0.000000 0.000000 0.000000 0.000000 0.000000 10.000000 
Rope2_Seg09 0.000000 0.000000 0.000000 0.000000 0.000000 0.000000 10.000000 
R_mid_hand01 0.000000 0.000000 0.000000 0.000000 0.000000 0.000000 10.000000 
R_mid_hand02 0.000000 0.000000 0.000000 0.000000 0.000000 0.000000 10.000000 
R_mid_hand03 0.000000 0.000000 0.000000 0.000000 0.000000 0.000000 10.000000 
spine02 0.000000 0.000000 0.000000 0.000000 0.000000 0.000000 10.000000 
spine03 0.000000 0.000000 0.000000 0.000000 0.000000 0.000000 10.000000 
pelvis 0.000000 0.000000 0.000000 0.000000 0.000000 0.000000 10.000000 
null_rope03_connect 0.000000 0.000000 0.000000 0.000000 0.000000 0.000000 10.000000 
null_rope04_connect 0.000000 0.000000 0.000000 0.000000 0.000000 0.000000 10.000000 
Rope3_Seg01 0.000000 0.000000 0.000000 0.000000 0.000000 0.000000 10.000000 
Rope3_Seg02 0.000000 0.000000 0.000000 0.000000 0.000000 0.000000 10.000000 
Rope3_Seg03 0.000000 0.000000 0.000000 0.000000 0.000000 0.000000 10.000000 
Rope3_Seg04 0.000000 0.000000 0.000000 0.000000 0.000000 0.000000 10.000000 
Rope3_Seg05 0.000000 0.000000 0.000000 0.000000 0.000000 0.000000 10.000000 
Rope3_Seg06 0.000000 0.000000 0.000000 0.000000 0.000000 0.000000 10.000000 
Rope3_Seg07 0.000000 0.000000 0.000000 0.000000 0.000000 0.000000 10.000000 
Rope3_Seg08 0.000000 0.000000 0.000000 0.000000 0.000000 0.000000 10.000000 
Rope3_Seg09 0.000000 0.000000 0.000000 0.000000 0.000000 0.000000 10.000000 
R_rear_hand01 0.000000 0.000000 0.000000 0.000000 0.000000 0.000000 10.000000 
R_rear_hand02 0.000000 0.000000 0.000000 0.000000 0.000000 0.000000 10.000000 
R_rear_hand03 0.000000 0.000000 0.000000 0.000000 0.000000 0.000000 10.000000 
Rope4_Seg01 0.000000 0.000000 0.000000 0.000000 0.000000 0.000000 10.000000 
Rope4_Seg02 0.000000 0.000000 0.000000 0.000000 0.000000 0.000000 10.000000 
Rope4_Seg03 0.000000 0.000000 0.000000 0.000000 0.000000 0.000000 10.000000 
Rope4_Seg04 0.000000 0.000000 0.000000 0.000000 0.000000 0.000000 10.000000 
Rope4_Seg05 0.000000 0.000000 0.000000 0.000000 0.000000 0.000000 10.000000 
Rope4_Seg06 0.000000 0.000000 0.000000 0.000000 0.000000 0.000000 10.000000 
Rope4_Seg07 0.000000 0.000000 0.000000 0.000000 0.000000 0.000000 10.000000 
Rope4_Seg08 0.000000 0.000000 0.000000 0.000000 0.000000 0.000000 10.000000 
Rope4_Seg09 0.000000 0.000000 0.000000 0.000000 0.000000 0.000000 10.000000 
L_rear_hand01 0.000000 0.000000 0.000000 0.000000 0.000000 0.000000 10.000000 
L_rear_hand02 0.000000 0.000000 0.000000 0.000000 0.000000 0.000000 10.000000 
L_rear_hand03 0.000000 0.000000 0.000000 0.000000 0.000000 0.000000 10.000000 
#Beginning of Data. Separated by tabs
#Fr	Tx	Ty	Tz	Rx	Ry	Rz	SF
[MASTER]
26 0.000003 -0.000001 4799.140625 0.001660 0.001660 0.001660 4799.140625
27 0.000003 -0.000006 4798.977051 0.001660 0.001660 0.001660 4798.977051
[root]
26 -16.502300 -20.839815 1466.579102 -94.880875 -16.033670 -89.011765 1466.819946
27 -16.502298 -21.917212 1467.577881 -88.585892 -14.897423 -89.327484 1467.834351
[chest]
26 -84.512650 -34.090519 0.000000 -16.890383 -6.032991 160.795242 91.129311
27 -84.512650 -34.090519 0.000000 -27.633898 -3.899170 160.941437 91.129311
[L_mid_tent01]
26 27.299065 22.179020 -249.918686 3.862609 36.229279 81.347603 252.381653
27 27.299065 22.179016 -249.918686 0.647525 46.093678 80.134964 252.381653
[R_mid_tent01]
26 23.228794 24.509907 226.238495 160.432037 -47.061291 87.899765 228.744751
27 23.228794 24.509907 226.238495 159.853302 -54.471642 88.827507 228.744751
[spine01]
26 -0.361383 -0.195265 0.000000 0.002062 0.001122 32.879829 0.410763
27 -0.361383 -0.195265 0.000000 0.002062 0.001122 32.879829 0.410763
[Bip01_Neck]
26 165.484543 71.581718 0.000119 176.643677 -1.657967 43.431911 180.302734
27 165.484543 71.581718 0.000119 176.643677 -1.657967 43.431911 180.302734
[L_humerus]
26 -13.983130 -135.272980 -120.471481 56.229435 70.640198 -178.825836 181.680161
27 -13.983130 -135.272980 -120.471481 47.710968 68.335358 170.232101 181.680161
[R_humerus]
26 -13.983309 -135.273102 125.287651 -170.370636 -16.111137 -101.547623 184.909012
27 -13.983309 -135.273102 125.287651 -169.572372 -18.908291 -102.666763 184.909012
[weapon_bone]
26 235.964890 -300.705902 0.000000 0.000000 -89.951546 -128.212341 382.234833
27 235.964890 -300.705902 0.000000 0.000000 -89.951546 -128.212341 382.234833
[Bip01_Head]
26 213.336487 186.015625 7.908474 32.993607 4.582991 -43.849358 283.155090
27 213.326874 186.042465 7.559204 33.220222 6.149210 -43.830616 283.155945
[eye_left_bone]
26 -24.626970 125.451866 -64.772606 0.000000 -90.000000 -99.840431 143.318359
27 -24.626970 125.451866 -64.772606 0.000000 -90.000000 -99.840431 143.318359
[eye_right_bone]
26 -24.626970 125.451866 64.327362 0.000000 -89.965736 80.156380 143.117676
27 -24.626970 125.451866 64.327362 0.000000 -89.965736 80.156380 143.117676
[L_forearm]
26 322.776093 0.000000 -0.000119 0.000119 -0.002344 -95.807457 322.776093
27 322.776093 0.000000 -0.000119 0.000119 -0.002344 -95.807457 322.776093
[L_front_hand]
26 241.149185 -0.042021 -3.300071 -178.667953 -1.835447 -27.422350 241.171753
27 241.149185 -0.042021 -3.300071 -178.667953 -1.835447 -27.422350 241.171753
[L_weapon_bone]
26 156.183838 0.000000 0.000000 0.000014 0.000007 0.000001 156.183838
27 156.183838 0.000000 0.000000 0.000014 0.000007 0.000001 156.183838
[L_front_hand01_01]
26 86.095154 20.947098 -0.655860 -0.366594 -0.477154 75.385574 88.609184
27 86.095154 20.947098 -0.655860 -0.366594 -0.477154 75.385574 88.609184
[L_front_hand02_01]
26 86.935165 -11.437475 24.513514 154.399796 -59.883835 -61.369587 91.046425
27 86.935165 -11.437475 24.513514 154.399796 -59.883835 -61.369587 91.046425
[L_front_hand03_01]
26 86.637497 -14.123976 -20.424902 -153.913849 58.118122 -62.702866 90.126129
27 86.637497 -14.123976 -20.424902 -153.913849 58.118122 -62.702866 90.126129
[L_front_hand01_02]
26 71.020905 -0.000179 0.000030 0.000334 -0.002323 -106.379684 71.020905
27 71.020905 -0.000179 0.000030 0.000334 -0.002323 -106.379684 71.020905
[L_front_hand02_02]
26 71.020927 -0.000119 0.000060 0.000334 -0.002323 -106.379684 71.020927
27 71.020927 -0.000119 0.000060 0.000334 -0.002323 -106.379684 71.020927
[L_front_hand03_02]
26 71.020905 -0.000060 0.000060 0.000334 -0.002323 -106.379684 71.020905
27 71.020905 -0.000060 0.000060 0.000334 -0.002323 -106.379684 71.020905
[R_forearm]
26 322.776428 -0.000060 0.000030 0.209504 0.012586 -94.339050 322.776428
27 322.776428 -0.000060 0.000030 0.209504 0.012586 -94.339050 322.776428
[R_front_hand]
26 238.847015 -0.006795 2.210259 -2.635298 -10.645461 -26.312506 238.857239
27 238.847015 -0.006795 2.210259 -2.635298 -10.645461 -26.312506 238.857239
[R_weapon_bone]
26 155.664093 0.002503 -0.000030 0.003487 0.001180 -90.988930 155.664078
27 155.664093 0.002503 -0.000030 0.003487 0.001180 -90.988930 155.664078
[R_front_hand01_01]
26 87.624611 14.231146 22.918642 -154.633499 -59.950619 61.746044 91.683487
27 87.624611 14.231146 22.918642 -154.633499 -59.950619 61.746044 91.683487
[R_front_hand02_01]
26 89.356956 14.367283 -19.491137 154.602661 58.302849 63.744389 92.579636
27 89.356956 14.367283 -19.491137 154.602661 58.302849 63.744389 92.579636
[R_front_hand03_01]
26 87.286232 -22.307278 -0.143439 0.162155 -0.423168 -75.767921 90.091743
27 87.286232 -22.307278 -0.143439 0.162155 -0.423168 -75.767921 90.091743
[R_front_hand01_02]
26 71.020905 0.000060 0.000119 0.002323 -0.000334 106.381714 71.020905
27 71.020905 0.000060 0.000119 0.002323 -0.000334 106.381714 71.020905
[R_front_hand02_02]
26 71.020844 -0.000030 -0.000119 0.002323 -0.000334 106.381714 71.020836
27 71.020844 -0.000030 -0.000119 0.002323 -0.000334 106.381714 71.020836
[R_front_hand03_02]
26 71.020905 0.000000 0.000030 0.002323 -0.000334 106.381714 71.020905
27 71.020905 0.000000 0.000030 0.002323 -0.000334 106.381714 71.020905
[null_rope01_connect]
26 328.732483 0.000000 -0.000238 -151.303329 -49.350979 178.005005 328.732483
27 328.732483 0.000000 -0.000238 -154.697693 -45.582066 179.873123 328.732483
[Rope1_Seg01]
26 0.000016 -0.000060 0.000347 0.374161 18.027109 -165.890991 0.000352
27 0.000016 -0.000061 0.000361 7.967335 26.832661 -159.766190 0.000366
[Rope1_Seg02]
26 139.999863 -0.000179 0.000000 -3.988002 3.162503 -18.354048 139.999863
27 139.999863 -0.000179 0.000000 -4.784776 -2.546706 -21.760242 139.999863
[Rope1_Seg03]
26 139.999924 0.000060 -0.000060 -1.767205 8.022192 -28.700367 139.999924
27 139.999924 0.000060 -0.000060 0.807618 -2.201446 -31.498610 139.999924
[Rope1_Seg04]
26 139.999924 -0.000060 -0.000119 8.894259 4.239039 -30.657772 139.999924
27 139.999924 -0.000060 -0.000119 9.960773 1.792125 -33.313618 139.999924
[Rope1_Seg05]
26 139.999832 0.000119 -0.000060 10.558788 -2.316347 -12.946122 139.999832
27 139.999832 0.000119 -0.000060 8.501578 -0.698434 -13.022056 139.999832
[Rope1_Seg06]
26 139.999954 0.000119 -0.000060 5.388599 -1.557814 -5.302368 139.999954
27 139.999954 0.000119 -0.000060 4.581845 -1.240161 -4.994485 139.999954
[Rope1_Seg07]
26 139.999985 0.000060 0.000000 3.406014 -1.163800 -2.918005 139.999985
27 139.999985 0.000060 0.000000 2.898801 -0.927825 -2.772858 139.999985
[Rope1_Seg09]
26 121.602913 0.000119 -0.000089 -89.793175 -1.359789 0.847147 121.602913
27 121.602913 0.000119 -0.000089 -89.793175 -1.359789 0.847147 121.602913
[L_mid_hand01]
26 103.859421 1.038730 8.195221 130.544373 -67.584534 -38.866943 104.187431
27 103.859421 1.038730 8.195221 130.544373 -67.584534 -38.866943 104.187431
[L_mid_hand02]
26 105.572853 -4.139662 -10.864139 -168.923172 43.409309 -73.498886 106.211075
27 105.572853 -4.139662 -10.864139 -168.923172 43.409309 -73.498886 106.211075
[L_mid_hand03]
26 104.641464 17.579376 -3.913581 -6.012627 17.808174 74.893669 106.179977
27 104.641464 17.579376 -3.913581 -6.012627 17.808174 74.893669 106.179977
[null_rope02_connect]
26 328.732849 0.000179 -0.000119 -133.170959 43.483692 21.444773 328.732849
27 328.732849 0.000179 -0.000119 -139.730606 31.346560 13.713524 328.732849
[Rope2_Seg01]
26 -0.000054 0.000100 0.000000 75.212990 29.432350 6.933496 0.000113
27 -0.000059 0.000099 0.000000 76.881874 27.019587 8.201725 0.000115
[Rope2_Seg02]
26 139.999741 -0.000060 -0.000119 1.219306 3.425539 1.829458 139.999756
27 139.999741 -0.000060 -0.000119 2.602911 3.207627 5.158770 139.999756
[Rope2_Seg03]
26 140.000107 0.000030 0.000000 2.142858 5.968130 3.997535 140.000107
27 140.000107 0.000030 0.000000 5.227125 5.305772 10.855457 140.000107
[Rope2_Seg04]
26 139.999802 0.000000 -0.000060 6.883017 16.732361 17.234253 139.999802
27 139.999802 0.000000 -0.000060 14.982725 7.477408 30.649015 139.999802
[Rope2_Seg05]
26 139.999985 -0.000060 0.000119 -15.502371 48.640717 -44.858959 139.999985
27 139.999985 -0.000060 0.000119 -20.278023 46.711987 -49.480679 139.999985
[Rope2_Seg06]
26 139.999893 -0.000030 -0.000119 3.711002 6.824599 -5.430401 139.999893
27 139.999893 -0.000030 -0.000119 7.984156 14.890518 -14.610945 139.999893
[Rope2_Seg07]
26 139.999893 0.000060 -0.000060 1.949535 2.685877 -2.184231 139.999893
27 139.999893 0.000060 -0.000060 3.995574 3.963188 -4.094685 139.999893
[Rope2_Seg09]
26 121.338966 0.000089 -0.000060 33.793236 -1.359788 -0.847141 121.338966
27 121.338966 0.000089 -0.000060 33.793236 -1.359788 -0.847141 121.338966
[R_mid_hand01]
26 104.680779 11.144459 -10.335981 -16.212063 45.237247 70.462852 105.778534
27 104.680779 11.144459 -10.335981 -16.212063 45.237247 70.462852 105.778534
[R_mid_hand02]
26 104.070427 2.443552 8.231699 49.067368 -67.749771 39.286453 104.424065
27 104.070427 2.443552 8.231699 49.067368 -67.749771 39.286453 104.424065
[R_mid_hand03]
26 106.028137 -11.221827 -5.996406 -177.101105 15.551026 -76.585571 106.788818
27 106.028137 -11.221827 -5.996406 -177.101105 15.551026 -76.585571 106.788818
[spine02]
26 129.756927 0.001550 0.000119 -1.023899 -3.926965 6.770993 129.756927
27 129.756927 0.001550 0.000119 -1.023899 -3.926965 6.770993 129.756927
[spine03]
26 78.614021 0.081739 -4.898997 1.040681 4.146420 4.212376 78.766556
27 78.614021 0.081739 -4.898996 1.040681 4.146420 4.212376 78.766556
[pelvis]
26 169.435242 0.051022 0.000000 0.019518 -0.190233 -10.721436 169.435257
27 169.435242 0.051022 0.000000 0.019518 -0.190233 -10.721436 169.435257
[null_rope03_connect]
26 -1.257226 -2.466202 137.391083 -176.192947 -84.994141 -110.797554 137.418976
27 -1.257226 -2.466202 137.391083 45.380009 -88.489487 26.451736 137.418976
[null_rope04_connect]
26 -1.259640 -2.480268 -137.844437 -176.192947 -84.994141 -110.797554 137.872513
27 -1.259640 -2.480268 -137.844437 45.380009 -88.489487 26.451736 137.872513
[Rope3_Seg01]
26 0.000000 0.000000 0.000000 12.233261 -7.931589 -52.448547 0.000000
27 0.000000 0.000000 0.000000 12.505385 -7.081508 -52.284157 0.000000
[Rope3_Seg02]
26 139.999924 -0.000119 0.000060 -2.729820 -7.650506 1.775829 139.999924
27 139.999924 -0.000119 0.000060 -2.813897 -8.649290 1.023197 139.999924
[Rope3_Seg03]
26 139.999924 -0.000119 0.000119 -2.494633 -8.624778 1.593771 139.999924
27 139.999924 -0.000119 0.000119 -2.414963 -10.157663 0.707986 139.999924
[Rope3_Seg04]
26 139.999924 0.000119 0.000000 -1.060587 -6.101171 -0.699620 139.999924
27 139.999924 0.000119 0.000000 -1.063187 -8.962170 -1.289262 139.999924
[Rope3_Seg05]
26 139.999924 -0.000238 0.000060 -1.128649 -8.270958 0.956025 139.999924
27 139.999924 -0.000238 0.000060 -0.371659 -9.501007 -0.285071 139.999924
[Rope3_Seg06]
26 139.999893 -0.000119 -0.000060 -2.167088 -17.844633 6.493648 139.999893
27 139.999893 -0.000119 -0.000060 0.192069 -16.234671 4.446591 139.999893
[Rope3_Seg07]
26 139.999771 0.000060 -0.000119 -0.736146 -19.594002 7.466545 139.999771
27 139.999771 0.000060 -0.000119 1.599204 -18.873974 6.880424 139.999771
[Rope3_Seg08]
26 139.999985 -0.000060 0.000000 0.944727 -9.575777 3.263225 139.999985
27 139.999985 -0.000060 0.000000 2.060148 -9.910951 3.467973 139.999985
[Rope3_Seg09]
26 90.185997 -0.000179 -0.000060 89.793228 -1.359877 -0.847183 90.185997
27 90.185997 -0.000179 -0.000060 89.793228 -1.359877 -0.847183 90.185997
[R_rear_hand01]
26 103.366196 -6.073594 -10.757982 -177.714203 24.565960 -73.910950 104.101845
27 103.366196 -6.073594 -10.757982 -177.714203 24.565960 -73.910950 104.101845
[R_rear_hand02]
26 100.509819 12.039542 -7.992327 -12.874829 36.868488 72.167213 101.543350
27 100.509819 12.039542 -7.992327 -12.874829 36.868488 72.167213 101.543350
[R_rear_hand03]
26 101.539970 5.215704 5.435467 71.484581 -71.816628 21.513813 101.819031
27 101.539970 5.215704 5.435467 71.484581 -71.816628 21.513813 101.819031
[Rope4_Seg01]
26 0.000010 0.000016 -0.000066 -93.304573 -19.733179 -119.981247 0.000069
27 0.000010 0.000016 -0.000062 -95.161430 -12.611367 -118.312714 0.000065
[Rope4_Seg02]
26 139.999985 0.000060 0.000119 1.495969 7.390070 -5.360798 139.999985
27 139.999985 0.000060 0.000119 1.683599 6.292810 -6.765789 139.999985
[Rope4_Seg03]
26 139.999924 0.000000 -0.000238 2.643037 8.186688 -7.452694 139.999924
27 139.999924 0.000000 -0.000238 2.832622 7.893570 -10.016958 139.999924
[Rope4_Seg04]
26 139.999985 0.000000 0.000119 3.453176 4.090910 -10.644600 139.999985
27 139.999985 0.000000 0.000119 3.946327 5.765323 -15.151077 139.999985
[Rope4_Seg05]
26 139.999802 -0.000060 -0.000119 5.733945 19.595264 -5.432653 139.999802
27 139.999802 -0.000060 -0.000119 4.439001 16.066839 -8.553371 139.999802
[Rope4_Seg06]
26 139.999924 0.000000 0.000060 18.602795 29.096867 -4.638930 139.999924
27 139.999924 0.000000 0.000060 12.528948 26.555464 -6.515921 139.999924
[Rope4_Seg07]
26 139.999802 0.000000 0.000000 20.103905 11.713292 -7.816914 139.999802
27 139.999802 0.000000 0.000000 17.059784 13.879405 -9.790211 139.999802
[Rope4_Seg08]
26 139.999924 0.000000 0.000119 10.775618 4.068215 -5.716471 139.999924
27 139.999924 0.000000 0.000119 9.814501 5.371080 -7.135505 139.999924
[Rope4_Seg09]
26 90.185791 0.000060 0.000060 -135.617828 2.228885 0.850567 90.185791
27 90.185791 0.000060 0.000060 -135.617828 2.228885 0.850567 90.185791
[L_rear_hand01]
26 101.696655 -8.392275 -7.654577 -12.874829 -36.868488 107.832764 102.329041
27 101.696655 -8.392275 -7.654577 -12.874829 -36.868488 107.832764 102.329041
[L_rear_hand02]
26 102.726799 -1.568258 5.773216 71.484581 71.816628 158.486160 102.900848
27 102.726799 -1.568258 5.773216 71.484581 71.816628 158.486160 102.900848
[L_rear_hand03]
26 104.552910 9.721220 -10.420293 -177.714203 -24.565960 -106.089035 105.519653
27 104.552910 9.721220 -10.420293 -177.714203 -24.565960 -106.089035 105.519653
